<svg width="2687" height="1573" viewBox="0 0 2687 1573" fill="none" xmlns="http://www.w3.org/2000/svg">
<path d="M1317 226L1317 913" stroke="black" stroke-width="50"/>
<path d="M836.5 925C836.5 995.758 860.289 1050.58 899.695 1087.8C939.272 1125.18 996.941 1147 1068.5 1147C1142.18 1147 1205.71 1131.47 1250.09 1100.27C1293.24 1069.93 1320.5 1023.34 1320.5 954.5C1320.5 885.194 1292.78 830.831 1248.36 793.394C1203.52 755.605 1140.29 734 1068.5 734C994.676 734 936.774 749.206 897.814 779.31C859.987 808.539 836.5 854.55 836.5 925Z" stroke="black" stroke-width="50"/>
<path d="M1858 769.429C1642.4 724.767 1432.75 744.871 1452.26 960.986C1471.54 1174.44 1741.29 1133.88 1858 1118.68" stroke="black" stroke-width="50"/>
<path d="M140.803 919.227V860.136L705.859 548.524V639.007L242.365 889.22L246.982 880.911V898.453L242.365 890.143L705.859 1140.36V1230.84L140.803 919.227Z" fill="black"/>
<path d="M2545.86 919.227L1980.8 1230.84V1140.36L2444.3 890.143L2440.14 898.453V880.911L2444.3 889.22L1980.8 639.007V548.524L2545.86 860.136V919.227Z" fill="black"/>
</svg>
